<svg xmlns:mydata="http://www.w3.org/2000/svg" mydata:contrastcolor="ffffff" mydata:template="Contrast" mydata:presentation="2.5" mydata:layouttype="undefined" mydata:specialfontid="undefined" mydata:id1="595" mydata:id2="688" mydata:companyname="Majority" mydata:companytagline="" version="1.1" xmlns="http://www.w3.org/2000/svg" xmlns:xlink="http://www.w3.org/1999/xlink" viewBox="0 0 550 470"><g fill="#e03c31" fill-rule="nonzero" stroke="none" stroke-width="1" stroke-linecap="butt" stroke-linejoin="miter" stroke-miterlimit="1" stroke-dasharray="" stroke-dashoffset="0" font-family="none" font-weight="none" font-size="none" text-anchor="none" style="mix-blend-mode: normal"><g data-paper-data="{&quot;isGlobalGroup&quot;:true}"><g data-paper-data="{&quot;isPrimaryText&quot;:true}"><path d="M92.64331,246.50318l-27.64331,-42.71338v61.52866h10.70064v-25.32484l16.94268,26.21656l16.94268,-26.21656v25.32484h10.70064v-61.52866z" data-paper-data="{&quot;glyphName&quot;:&quot;M&quot;,&quot;glyphIndex&quot;:0,&quot;firstGlyphOfWord&quot;:true,&quot;word&quot;:1}" fill="#000000"></path><path d="M172.71975,265.31847h11.7707l-27.64331,-61.52866l-27.64331,61.52866h11.68153l6.42038,-14.26752h19.0828zM152.12102,240.35032l4.72611,-10.43312l4.72611,10.43312z" data-paper-data="{&quot;glyphName&quot;:&quot;A&quot;,&quot;glyphIndex&quot;:1,&quot;word&quot;:1}" fill="#000000"></path><path d="M218.3758,204.68153v41.01911c0,5.43949 -4.36943,9.80892 -9.80892,9.80892c-2.8535,0 -5.43949,-1.15924 -7.22293,-3.12102l-9.71975,4.90446c3.65605,5.35032 9.89809,8.9172 16.94268,8.9172c11.32484,0 20.50955,-9.18471 20.50955,-20.50955v-41.01911z" data-paper-data="{&quot;glyphName&quot;:&quot;J&quot;,&quot;glyphIndex&quot;:2,&quot;word&quot;:1}" fill="#000000"></path><path d="M353.9172,226.97452c0,-12.30573 -9.98726,-22.29299 -22.29299,-22.29299h-22.29299v60.63694h10.70064v-16.05096h8.82803l11.7707,16.05096h13.28662l-13.19745,-18.01274c7.75796,-3.47771 13.19745,-11.23567 13.19745,-20.33121zM320.03185,215.38217h11.59236c6.42038,0 11.59236,5.17197 11.59236,11.59236c0,6.42038 -5.17197,11.59236 -11.59236,11.59236h-11.59236z" data-paper-data="{&quot;glyphName&quot;:&quot;R&quot;,&quot;glyphIndex&quot;:4,&quot;word&quot;:1}" fill="#000000"></path><path d="M374.42675,265.31847v-60.63694h-10.70064v60.63694z" data-paper-data="{&quot;glyphName&quot;:&quot;I&quot;,&quot;glyphIndex&quot;:5,&quot;word&quot;:1}" fill="#000000"></path><path d="M427.92994,204.68153h-44.58599l5.35032,10.70064h11.59236v49.93631h10.70064v-49.93631h11.59236z" data-paper-data="{&quot;glyphName&quot;:&quot;T&quot;,&quot;glyphIndex&quot;:6,&quot;word&quot;:1}" fill="#000000"></path><path d="M472.87261,204.68153l-12.84076,24.61146l-12.84076,-24.61146h-12.12739l19.61783,37.45223v23.18471h10.70064v-23.18471l19.61783,-37.45223z" data-paper-data="{&quot;glyphName&quot;:&quot;Y&quot;,&quot;glyphIndex&quot;:7,&quot;lastGlyphOfWord&quot;:true,&quot;word&quot;:1}" fill="#000000"></path><g data-paper-data="{&quot;isIcon&quot;:&quot;true&quot;,&quot;iconType&quot;:&quot;icon&quot;,&quot;rawIconId&quot;:&quot;2920085&quot;,&quot;selectedEffects&quot;:{&quot;container&quot;:&quot;&quot;,&quot;transformation&quot;:&quot;&quot;,&quot;pattern&quot;:&quot;&quot;},&quot;fillRule&quot;:&quot;evenodd&quot;,&quot;bounds&quot;:{&quot;x&quot;:237.994,&quot;y&quot;:203.79,&quot;width&quot;:62.41999999999999,&quot;height&quot;:62.41999999999999},&quot;iconStyle&quot;:&quot;icon-in-text&quot;}"><path d="M300.414,235c0,17.21 -14,31.21 -31.21,31.21c-17.21,0 -31.21,-14 -31.21,-31.21c0,-17.21 14,-31.21 31.21,-31.21c17.21,0 31.21,14 31.21,31.21zM281.77064,258.69414c0,0.90471 0.73345,1.63816 1.63816,1.63816c0.43444,0 0.85113,-0.17257 1.15836,-0.4798c0.30723,-0.30723 0.4798,-0.72392 0.4798,-1.15836v-47.3883c0,-0.90473 -0.73345,-1.63816 -1.63816,-1.63816c-0.90471,0 -1.63816,0.73343 -1.63816,1.63816zM275.26532,256.29309c0.01289,0.81807 0.67809,1.47535 1.49622,1.47848c0.82275,0.00331 1.4951,-0.6558 1.50805,-1.47848v-42.58028c0,-0.53669 -0.28629,-1.03257 -0.75107,-1.30089c-0.46477,-0.26831 -1.03736,-0.26831 -1.50214,0c-0.46477,0.26831 -0.75107,0.7642 -0.75107,1.30089zM268.76,253.85063c0.00325,0.75219 0.61393,1.3602 1.36612,1.3602c0.75219,0 1.36287,-0.60801 1.36612,-1.3602v-37.69537c0,-0.7545 -0.61162,-1.36612 -1.36612,-1.36612c-0.7545,0 -1.36612,0.61162 -1.36612,1.36612zM262.61738,252.29332c0.22993,0.22988 0.54225,0.35838 0.8674,0.35679c0.32568,0.0016 0.63859,-0.12673 0.86947,-0.35643c0.23082,-0.22976 0.36063,-0.54207 0.36063,-0.86775v-32.85187c-0.04477,-0.64474 -0.58086,-1.14488 -1.22714,-1.14488c-0.64627,0 -1.18237,0.50014 -1.22714,1.14488v32.85187c-0.0016,0.32515 0.12691,0.63746 0.35679,0.8674zM256.0719,249.77446c0.20421,0.20539 0.48193,0.32083 0.77153,0.32083c0.2896,0 0.56732,-0.11544 0.77153,-0.32083c0.20427,-0.20533 0.31823,-0.48364 0.31663,-0.77325v-28.00245c0,-0.38878 -0.2074,-0.74799 -0.54408,-0.94238c-0.33668,-0.19439 -0.75148,-0.19439 -1.08816,0c-0.33668,0.19439 -0.54408,0.5536 -0.54408,0.94238v28.00245c-0.0016,0.2896 0.11236,0.56791 0.31663,0.77325zM249.24995,246.58242c0,0.52587 0.42628,0.95214 0.95214,0.95214c0.52587,0 0.95214,-0.42628 0.95214,-0.95214v-23.15894c0,-0.34017 -0.1815,-0.65449 -0.47607,-0.82458c-0.29457,-0.17008 -0.65757,-0.17008 -0.95214,0c-0.29457,0.17008 -0.47607,0.48441 -0.47607,0.82458zM242.74463,244.15771c0,0.45076 0.36536,0.81612 0.81612,0.81612c0.45076,0 0.81612,-0.36536 0.81612,-0.81612v-18.33317c0,-0.45076 -0.36536,-0.81612 -0.81612,-0.81612c-0.45076,0 -0.81612,0.36536 -0.81612,0.81612z" data-paper-data="{&quot;isPathIcon&quot;:true}"></path></g></g></g></g></svg>